<svg xmlns="http://www.w3.org/2000/svg" width="69.691" height="16.205" viewBox="0 0 69.691 16.205">
  <g id="Group_1" data-name="Group 1" transform="translate(0 0)">
    <path id="Path_1" data-name="Path 1" d="M301,140.192l.47.94,7.8-5.372,7.8,5.232.44-.96-8.243-5.632Z" transform="translate(-301 -133.9)" fill="#555"/>
    <path id="Path_2" data-name="Path 2" d="M328.878,238.958l.76-.62-.06-.08c-.63-.79-1.89-2.241-2.491-2.891l-.071-.071-.72.63.071.08c.58.63,1.821,2.081,2.451,2.881Z" transform="translate(-323.766 -224.704)" fill="#555"/>
    <path id="Path_3" data-name="Path 3" d="M406.571,237.7l-.071.071.73.69.071-.071c.74-.81,1.84-2.1,2.561-3.011l.071-.08-.84-.6-.06.08C408.43,235.6,407.36,236.82,406.571,237.7Z" transform="translate(-395.947 -224.167)" fill="#555"/>
    <path id="Path_4" data-name="Path 4" d="M312.923,192.561h6.4v-.98h-6.4v-2.41h4.321V188.2h-9.7v.971h4.341v2.41h-6.4v.98h6.4v4.461H304.5V198h15.795v-.98h-7.372Z" transform="translate(-304.15 -182.318)" fill="#555"/>
    <path id="Path_5" data-name="Path 5" d="M481.611,135.642V134.3h2.061v-1.02h-2.061V129.8h-1.021v3.481h-2.511V134.3h2.451l-2.83,6.231.48,1.09,2.41-5.061V145.9h1.02v-8.843c.58.65,1.41,1.621,1.88,2.2l.071.08.72-.63-.06-.071C483.682,137.993,482.151,136.252,481.611,135.642Z" transform="translate(-460.025 -129.76)" fill="#555"/>
    <path id="Path_6" data-name="Path 6" d="M548.8,231.642h7.932V225H548.8Zm6.9-5.671v4.722H549.84v-4.722Z" transform="translate(-524.013 -215.437)" fill="#555"/>
    <path id="Path_7" data-name="Path 7" d="M544.642,129.4h-1.03v2.671H539.2v1h4.411v2.75H539.66v.98h9.253v-.98h-4.271V133.07h4.872v-1h-4.872Z" transform="translate(-515.373 -129.4)" fill="#555"/>
    <path id="Path_8" data-name="Path 8" d="M660.33,162.3l-3.53,9.2,1,.45,3.6-9.433Z" transform="translate(-621.21 -159.009)" fill="#555"/>
    <path id="Path_9" data-name="Path 9" d="M698.471,148.354H694.5l.22,1.1h4.862V134.2h-1.11Z" transform="translate(-655.138 -133.72)" fill="#555"/>
    <path id="Path_10" data-name="Path 10" d="M768.84,161.28l-.04-.08-1,.39.05.1c1.05,2.161,3.161,6.871,4.121,9.273l.04.09,1.06-.43-.04-.09C772.112,168.312,769.921,163.471,768.84,161.28Z" transform="translate(-721.106 -158.019)" fill="#555"/>
    <path id="Path_11" data-name="Path 11" d="M858.123,131.567c-.19-.48-.48-1.12-.69-1.6-.071-.16-.13-.3-.18-.4l-.03-.071-1.22.17.81,1.9h-6.7l-.7,13.876-.01.11h1.06l.7-12.984h13.074v-1Z" transform="translate(-794.544 -129.486)" fill="#555"/>
    <path id="Path_12" data-name="Path 12" d="M890.411,165h-1.05v5.8H885.7v6.832h9.373V170.8h-4.662V168.08h6.172v-.98h-6.172Zm-3.661,11.573v-4.751h7.272v4.751Z" transform="translate(-827.213 -161.439)" fill="#555"/>
  </g>
</svg>
