<svg id="Group_66_3_" xmlns="http://www.w3.org/2000/svg" width="23.999" height="24" viewBox="0 0 23.999 24">
  <path id="Path_1_3_" d="M-400.163,481.39a9.288,9.288,0,0,0-3.811,1.581.924.924,0,0,0-.22,1.279.689.689,0,0,0,.11.13l3.421,3.431a.92.92,0,0,0,1,.2.92.92,0,0,0,.568-.85V482.3a.918.918,0,0,0-.323-.7.918.918,0,0,0-.747-.206Z" transform="translate(410.626 -478.487)" fill="#ff835a"/>
  <path id="Path_2_3_" d="M-432.429,577.1h-4.851a.926.926,0,0,0-.92.93.663.663,0,0,0,.01.14,9.288,9.288,0,0,0,1.581,3.811.924.924,0,0,0,1.279.22.689.689,0,0,0,.13-.11l3.431-3.412a.929.929,0,0,0,.2-1.009A.929.929,0,0,0-432.429,577.1Z" transform="translate(441.081 -564.633)" fill="#ff835a"/>
  <path id="Path_3_3_" d="M-431.716,518.812l-3.43-3.431a.933.933,0,0,0-.662-.269.933.933,0,0,0-.658.279.392.392,0,0,0-.08.1,9.21,9.21,0,0,0-1.581,3.811.9.9,0,0,0,.154.683.9.9,0,0,0,.6.367.912.912,0,0,0,.17.01h4.851a.9.9,0,0,0,.844-.559A.9.9,0,0,0-431.716,518.812Z" transform="translate(441.028 -508.846)" fill="#ff835a"/>
  <path id="Path_4_3_" d="M-342.5,482.3v4.841a.916.916,0,0,0,.566.855.916.916,0,0,0,1-.205l3.441-3.421a.933.933,0,0,0,.269-.662.933.933,0,0,0-.279-.658.391.391,0,0,0-.1-.08,9.209,9.209,0,0,0-3.811-1.581.935.935,0,0,0-.755.2A.934.934,0,0,0-342.5,482.3Z" transform="translate(354.954 -478.485)" fill="#ff835a"/>
  <path id="Path_5_3_" d="M-342.5,597.629v4.851a.926.926,0,0,0,.93.92.657.657,0,0,0,.14-.01,9.287,9.287,0,0,0,3.811-1.581.924.924,0,0,0,.22-1.279.688.688,0,0,0-.11-.13l-3.412-3.431a.927.927,0,0,0-1.01-.2.927.927,0,0,0-.57.857Z" transform="translate(354.954 -582.272)" fill="#ff835a"/>
  <path id="Path_6_3_" d="M-400.688,596.955l-3.431,3.431a.933.933,0,0,0-.269.662.933.933,0,0,0,.279.658.392.392,0,0,0,.1.08,9.21,9.21,0,0,0,3.811,1.581.9.9,0,0,0,.683-.154.9.9,0,0,0,.367-.6.915.915,0,0,0,.01-.17v-4.832a.9.9,0,0,0-.55-.86A.9.9,0,0,0-400.688,596.955Z" transform="translate(410.651 -582.258)" fill="#ff835a"/>
  <path id="Path_7_3_" d="M-321.939,520.507h4.851a.926.926,0,0,0,.92-.93.659.659,0,0,0-.01-.14,9.287,9.287,0,0,0-1.581-3.811.924.924,0,0,0-1.279-.22.689.689,0,0,0-.13.11l-3.431,3.412a.928.928,0,0,0-.2,1.009A.929.929,0,0,0-321.939,520.507Z" transform="translate(337.283 -508.961)" fill="#ff835a"/>
  <path id="Path_8_3_" d="M-322.624,578.945l3.431,3.431a.933.933,0,0,0,.662.269.933.933,0,0,0,.658-.279.391.391,0,0,0,.08-.1,9.209,9.209,0,0,0,1.581-3.811.9.9,0,0,0-.154-.683.9.9,0,0,0-.6-.367.922.922,0,0,0-.17-.01h-4.851a.9.9,0,0,0-.845.559A.9.9,0,0,0-322.624,578.945Z" transform="translate(337.309 -564.898)" fill="#ff835a"/>
  <path id="Path_9_3_" d="M-455.006,476.466A12,12,0,0,1-467,464.475a11.992,11.992,0,0,1,3.511-8.484,11.993,11.993,0,0,1,16.964-.02,11.993,11.993,0,0,1,.02,16.964l-.02.02A11.875,11.875,0,0,1-455.006,476.466Zm0-22.147a10.167,10.167,0,0,0-10.153,10.153,10.167,10.167,0,0,0,10.153,10.153,10.167,10.167,0,0,0,10.153-10.153,10.16,10.16,0,0,0-10.153-10.153Z" transform="translate(467 -452.466)" fill="#ff835a"/>
</svg>
