<svg xmlns="http://www.w3.org/2000/svg" width="831.661" height="200" viewBox="0 0 831.661 200">
  <g id="组_7177" data-name="组 7177" transform="translate(-22 -19)">
    <g id="金桔小店logo_横" data-name="金桔小店logo 横" transform="translate(22 19)">
      <g id="Group_66_3_" transform="translate(0 0)">
        <path id="Path_1_3_" d="M-369.383,481.484a77.4,77.4,0,0,0-31.76,13.171,7.7,7.7,0,0,0-1.834,10.662,5.747,5.747,0,0,0,.916,1.084l28.508,28.591a7.663,7.663,0,0,0,8.355,1.667,7.664,7.664,0,0,0,4.732-7.085v-40.5a7.648,7.648,0,0,0-2.692-5.868,7.649,7.649,0,0,0-6.224-1.718Z" transform="translate(456.577 -457.287)" fill="#ff835a"/>
        <path id="Path_2_3_" d="M-390.1,577.1h-40.428a7.721,7.721,0,0,0-7.669,7.752,5.527,5.527,0,0,0,.083,1.167,77.4,77.4,0,0,0,13.171,31.76,7.7,7.7,0,0,0,10.662,1.834,5.732,5.732,0,0,0,1.084-.916l28.591-28.431a7.739,7.739,0,0,0,1.626-8.408A7.738,7.738,0,0,0-390.1,577.1Z" transform="translate(462.206 -473.213)" fill="#ff835a"/>
        <path id="Path_3_3_" d="M-384.6,545.944l-28.587-28.592a7.772,7.772,0,0,0-5.519-2.24,7.77,7.77,0,0,0-5.485,2.323,3.264,3.264,0,0,0-.667.833,76.745,76.745,0,0,0-13.171,31.76,7.519,7.519,0,0,0,1.283,5.692,7.521,7.521,0,0,0,4.968,3.061,7.635,7.635,0,0,0,1.417.083h40.428a7.53,7.53,0,0,0,7.035-4.657A7.531,7.531,0,0,0-384.6,545.944Z" transform="translate(462.201 -462.897)" fill="#ff835a"/>
        <path id="Path_4_3_" d="M-342.5,489.071v40.345a7.636,7.636,0,0,0,4.714,7.127,7.636,7.636,0,0,0,8.372-1.709l28.674-28.508a7.773,7.773,0,0,0,2.241-5.519,7.774,7.774,0,0,0-2.323-5.484,3.259,3.259,0,0,0-.833-.668,76.743,76.743,0,0,0-31.76-13.171,7.789,7.789,0,0,0-6.29,1.7A7.788,7.788,0,0,0-342.5,489.071Z" transform="translate(446.28 -457.289)" fill="#ff835a"/>
        <path id="Path_5_3_" d="M-342.5,604.435v40.428a7.721,7.721,0,0,0,7.751,7.669,5.476,5.476,0,0,0,1.167-.083,77.4,77.4,0,0,0,31.76-13.171,7.7,7.7,0,0,0,1.834-10.661,5.722,5.722,0,0,0-.916-1.085l-28.431-28.592a7.727,7.727,0,0,0-8.415-1.643,7.726,7.726,0,0,0-4.75,7.138Z" transform="translate(446.28 -476.459)" fill="#ff835a"/>
        <path id="Path_6_3_" d="M-373.556,598.952l-28.591,28.591a7.773,7.773,0,0,0-2.241,5.519,7.772,7.772,0,0,0,2.323,5.484,3.259,3.259,0,0,0,.833.667,76.748,76.748,0,0,0,31.76,13.171,7.524,7.524,0,0,0,5.692-1.284,7.52,7.52,0,0,0,3.061-4.967,7.624,7.624,0,0,0,.083-1.418V604.453a7.535,7.535,0,0,0-4.579-7.168A7.536,7.536,0,0,0-373.556,598.952Z" transform="translate(456.579 -476.476)" fill="#ff835a"/>
        <path id="Path_7_3_" d="M-315.147,559.136h40.428a7.72,7.72,0,0,0,7.669-7.752,5.482,5.482,0,0,0-.083-1.167,77.394,77.394,0,0,0-13.171-31.76,7.7,7.7,0,0,0-10.662-1.834,5.759,5.759,0,0,0-1.084.916l-28.591,28.432a7.737,7.737,0,0,0-1.626,8.408A7.738,7.738,0,0,0-315.147,559.136Z" transform="translate(443.017 -462.917)" fill="#ff835a"/>
        <path id="Path_8_3_" d="M-320.625,590.319l28.591,28.591a7.773,7.773,0,0,0,5.519,2.24,7.77,7.77,0,0,0,5.484-2.323,3.254,3.254,0,0,0,.668-.833,76.743,76.743,0,0,0,13.171-31.761,7.521,7.521,0,0,0-1.284-5.692,7.522,7.522,0,0,0-4.967-3.061,7.7,7.7,0,0,0-1.417-.083h-40.428a7.53,7.53,0,0,0-7.038,4.656A7.53,7.53,0,0,0-320.625,590.319Z" transform="translate(442.994 -473.261)" fill="#ff835a"/>
        <path id="Path_9_3_" d="M-367.054,652.465A99.962,99.962,0,0,1-467,552.539a99.935,99.935,0,0,1,29.258-70.7,99.942,99.942,0,0,1,141.367-.166,99.942,99.942,0,0,1,.166,141.367l-.166.166A98.956,98.956,0,0,1-367.054,652.465Zm0-184.555a84.724,84.724,0,0,0-84.609,84.609,84.724,84.724,0,0,0,84.609,84.609,84.723,84.723,0,0,0,84.609-84.609A84.668,84.668,0,0,0-367.054,467.91Z" transform="translate(467 -452.466)" fill="#ff835a"/>
      </g>
      <g id="Group_1" data-name="Group 1" transform="translate(250.907 32.449)">
        <path id="Path_1" data-name="Path 1" d="M301,182.664l3.917,7.836,65.019-44.764,65.019,43.6,3.668-8L369.936,134.4Z" transform="translate(-301 -130.232)" fill="#555"/>
        <path id="Path_2" data-name="Path 2" d="M347.811,265.812l6.336-5.169-.5-.667c-5.252-6.585-15.754-18.672-20.757-24.088l-.592-.592-6,5.252.592.667c4.835,5.252,15.171,17.339,20.423,24.007Z" transform="translate(-305.213 -147.028)" fill="#555"/>
        <path id="Path_3" data-name="Path 3" d="M407.092,259.708l-.592.592,6.085,5.751.592-.592c6.168-6.753,15.337-17.505,21.339-25.091l.592-.667-7-5-.5.667C422.587,242.2,413.669,252.371,407.092,259.708Z" transform="translate(-318.558 -146.924)" fill="#555"/>
        <path id="Path_4" data-name="Path 4" d="M374.688,224.545h53.348v-8.17H374.688V196.3H410.7v-8.1H329.842v8.1h36.177v20.08H312.67v8.168h53.348v37.178H304.5v8.17H436.122v-8.17H374.688Z" transform="translate(-301.582 -139.186)" fill="#555"/>
        <path id="Path_5" data-name="Path 5" d="M510.293,178.481V167.314h17.177v-8.5H510.293V129.8h-8.506v29.008H480.859v8.506h20.423L477.7,219.24l4,9.082,20.087-42.173v77.857h8.5V190.317c4.836,5.418,11.753,13.5,15.671,18.338l.593.667,6-5.252-.5-.592C527.548,198.071,514.8,183.565,510.293,178.481Z" transform="translate(-330.406 -129.466)" fill="#555"/>
        <path id="Path_6" data-name="Path 6" d="M548.8,280.35h66.1V225H548.8ZM606.317,233.1v39.346H557.47V233.1Z" transform="translate(-342.24 -145.309)" fill="#555"/>
        <path id="Path_7" data-name="Path 7" d="M584.546,129.4h-8.587v22.257H539.2v8.336h36.761v22.913H543.035v8.168h77.106v-8.168H584.546V159.983h40.6v-8.336h-40.6Z" transform="translate(-340.642 -129.4)" fill="#555"/>
        <path id="Path_8" data-name="Path 8" d="M686.218,162.3,656.8,238.99l8.336,3.751,30.011-78.607Z" transform="translate(-360.213 -134.876)" fill="#555"/>
        <path id="Path_9" data-name="Path 9" d="M727.593,252.151H694.5l1.834,9.169h40.513V134.2h-9.252Z" transform="translate(-366.487 -130.198)" fill="#555"/>
        <path id="Path_10" data-name="Path 10" d="M776.47,161.867l-.334-.667-8.336,3.252.416.833c8.752,18,26.341,57.258,34.343,77.272l.334.75,8.835-3.583-.333-.75C803.734,220.468,785.471,180.123,776.47,161.867Z" transform="translate(-378.685 -134.692)" fill="#555"/>
        <path id="Path_11" data-name="Path 11" d="M922.088,146.759c-1.58-4-4-9.337-5.752-13.337-.592-1.335-1.084-2.5-1.5-3.335l-.252-.592-10.169,1.418,6.752,15.839H855.324l-5.841,115.631-.083.916h8.835l5.834-108.2H973.019v-8.336Z" transform="translate(-392.265 -129.422)" fill="#555"/>
        <path id="Path_12" data-name="Path 12" d="M924.962,165h-8.753v48.347H885.7v56.934h78.108V213.347H924.962v-22.68h51.431V182.5H924.962Zm-30.509,96.446V221.851h60.6v39.595Z" transform="translate(-398.308 -135.325)" fill="#555"/>
      </g>
    </g>
  </g>
</svg>
